<svg width="118" height="118" viewBox="0 0 118 118" fill="none" xmlns="http://www.w3.org/2000/svg">
<circle cx="59" cy="59" r="59" fill="#171717"/>
<path d="M74.3516 44.2305C77.3333 44.2305 79.9049 44.4909 82.0664 45.0117C84.2409 45.5326 86.0964 46.3724 87.6328 47.5312C89.1823 48.6771 90.3346 50.2005 91.0898 52.1016C91.8581 54.0026 92.2422 56.3008 92.2422 58.9961C92.2422 61.3008 91.9883 63.306 91.4805 65.0117C90.9727 66.7044 90.25 68.1107 89.3125 69.2305C88.375 70.3503 87.1576 71.2487 85.6602 71.9258C84.1628 72.6029 82.5091 73.0781 80.6992 73.3516C78.8893 73.638 76.7734 73.7812 74.3516 73.7812H43.2578C40.9792 73.7812 38.9544 73.6445 37.1836 73.3711C35.4258 73.0977 33.7852 72.6224 32.2617 71.9453C30.7513 71.2552 29.5013 70.3568 28.5117 69.25C27.5221 68.1302 26.7474 66.7174 26.1875 65.0117C25.6406 63.293 25.3672 61.2878 25.3672 58.9961C25.3672 56.3008 25.7448 54.0026 26.5 52.1016C27.2552 50.2005 28.401 48.6771 29.9375 47.5312C31.487 46.3724 33.3424 45.5326 35.5039 45.0117C37.6784 44.4909 40.263 44.2305 43.2578 44.2305H74.3516ZM74.3516 66.7695C75.7839 66.7695 76.9948 66.6589 77.9844 66.4375C78.987 66.2031 79.8724 65.7995 80.6406 65.2266C81.4089 64.6536 81.9753 63.8529 82.3398 62.8242C82.7174 61.7956 82.9062 60.5195 82.9062 58.9961C82.9062 57.4596 82.724 56.1836 82.3594 55.168C82.0078 54.1393 81.4479 53.3385 80.6797 52.7656C79.9245 52.1927 79.0456 51.7956 78.043 51.5742C77.0404 51.3398 75.8099 51.2227 74.3516 51.2227H43.2578C41.8125 51.2227 40.5885 51.3398 39.5859 51.5742C38.5833 51.7956 37.6979 52.1927 36.9297 52.7656C36.1745 53.3385 35.6081 54.1393 35.2305 55.168C34.8659 56.1836 34.6836 57.4596 34.6836 58.9961C34.6836 60.5326 34.8659 61.8151 35.2305 62.8438C35.6081 63.8594 36.1745 64.6536 36.9297 65.2266C37.6979 65.7995 38.5833 66.2031 39.5859 66.4375C40.5885 66.6589 41.8125 66.7695 43.2578 66.7695H74.3516Z" fill="white"/>
</svg>
